<svg width="479" height="284" viewBox="0 0 479 284" fill="none" xmlns="http://www.w3.org/2000/svg">
<path d="M26 278C43.1847 220.408 111.443 95.5801 247 57" stroke="white" stroke-width="6" stroke-linecap="round"/>
<path d="M3.41406 227.785L23.2245 280.018L75.4581 260.208" stroke="white" stroke-width="6" stroke-linecap="round"/>
<path d="M292.043 10.1641H303.576C306.192 10.1641 308.401 10.5628 310.203 11.3604C312.021 12.1579 313.401 13.3382 314.342 14.9014C315.299 16.4486 315.778 18.3547 315.778 20.6196C315.778 22.2147 315.451 23.6742 314.797 24.998C314.159 26.306 313.234 27.4225 312.021 28.3477C310.825 29.2568 309.39 29.9347 307.715 30.3813L306.423 30.8838H295.584L295.537 27.1274H303.719C305.378 27.1274 306.758 26.8403 307.858 26.2661C308.959 25.6759 309.788 24.8864 310.347 23.8975C310.905 22.9085 311.184 21.8159 311.184 20.6196C311.184 19.2798 310.921 18.1074 310.395 17.1025C309.868 16.0977 309.039 15.3241 307.906 14.7817C306.79 14.2235 305.346 13.9443 303.576 13.9443H296.661V45H292.043V10.1641ZM312.404 45L303.935 29.209L308.744 29.1851L317.333 44.7129V45H312.404ZM326.377 19.1123V45H321.927V19.1123H326.377ZM321.592 12.2456C321.592 11.5278 321.807 10.9217 322.238 10.4272C322.684 9.93278 323.338 9.68555 324.2 9.68555C325.045 9.68555 325.691 9.93278 326.138 10.4272C326.6 10.9217 326.832 11.5278 326.832 12.2456C326.832 12.9315 326.6 13.5216 326.138 14.0161C325.691 14.4946 325.045 14.7339 324.2 14.7339C323.338 14.7339 322.684 14.4946 322.238 14.0161C321.807 13.5216 321.592 12.9315 321.592 12.2456ZM337.909 24.6392V45H333.483V19.1123H337.67L337.909 24.6392ZM336.856 31.0752L335.014 31.0034C335.03 29.2329 335.293 27.598 335.804 26.0986C336.314 24.5833 337.032 23.2674 337.957 22.1509C338.882 21.0343 339.983 20.173 341.259 19.5669C342.551 18.9448 343.978 18.6338 345.542 18.6338C346.818 18.6338 347.966 18.8092 348.987 19.1602C350.008 19.4951 350.877 20.0374 351.595 20.7871C352.328 21.5368 352.887 22.5098 353.27 23.7061C353.652 24.8864 353.844 26.3299 353.844 28.0366V45H349.394V27.9888C349.394 26.633 349.194 25.5483 348.795 24.7349C348.397 23.9054 347.814 23.3073 347.049 22.9404C346.283 22.5576 345.342 22.3662 344.226 22.3662C343.125 22.3662 342.12 22.5975 341.211 23.0601C340.318 23.5226 339.544 24.1606 338.89 24.9741C338.252 25.7876 337.75 26.7207 337.383 27.7734C337.032 28.8102 336.856 29.9108 336.856 31.0752ZM377.339 19.1123H381.358V44.4497C381.358 46.7306 380.896 48.6766 379.971 50.2876C379.046 51.8986 377.754 53.1188 376.095 53.9482C374.452 54.7936 372.554 55.2163 370.4 55.2163C369.507 55.2163 368.454 55.0728 367.242 54.7856C366.046 54.5145 364.866 54.0439 363.701 53.374C362.553 52.7201 361.588 51.8348 360.806 50.7183L363.127 48.0864C364.212 49.3944 365.344 50.3035 366.524 50.814C367.721 51.3244 368.901 51.5796 370.065 51.5796C371.469 51.5796 372.681 51.3164 373.702 50.79C374.723 50.2637 375.513 49.4821 376.071 48.4453C376.645 47.4245 376.932 46.1644 376.932 44.665V24.8066L377.339 19.1123ZM359.514 32.3433V31.8408C359.514 29.863 359.745 28.0685 360.208 26.4575C360.687 24.8306 361.364 23.4349 362.242 22.2705C363.135 21.1061 364.212 20.2129 365.472 19.5908C366.732 18.9528 368.151 18.6338 369.73 18.6338C371.357 18.6338 372.777 18.9209 373.989 19.4951C375.217 20.0534 376.254 20.8748 377.1 21.9595C377.961 23.0282 378.639 24.3201 379.133 25.8354C379.628 27.3507 379.971 29.0654 380.162 30.9795V33.1807C379.987 35.0788 379.644 36.7855 379.133 38.3008C378.639 39.8161 377.961 41.1081 377.1 42.1768C376.254 43.2454 375.217 44.0669 373.989 44.6411C372.761 45.1994 371.326 45.4785 369.683 45.4785C368.135 45.4785 366.732 45.1515 365.472 44.4976C364.228 43.8436 363.159 42.9264 362.266 41.7461C361.372 40.5658 360.687 39.1781 360.208 37.583C359.745 35.972 359.514 34.2254 359.514 32.3433ZM363.94 31.8408V32.3433C363.94 33.6353 364.068 34.8475 364.323 35.98C364.594 37.1125 365.001 38.1094 365.543 38.9707C366.102 39.832 366.812 40.5099 367.673 41.0044C368.534 41.4829 369.563 41.7222 370.759 41.7222C372.227 41.7222 373.439 41.4111 374.396 40.7891C375.353 40.167 376.111 39.3455 376.669 38.3247C377.243 37.3039 377.69 36.1953 378.009 34.999V29.2329C377.833 28.3556 377.562 27.5103 377.195 26.6968C376.844 25.8674 376.382 25.1336 375.808 24.4956C375.249 23.8416 374.556 23.3232 373.726 22.9404C372.897 22.5576 371.924 22.3662 370.807 22.3662C369.595 22.3662 368.55 22.6214 367.673 23.1318C366.812 23.6263 366.102 24.3122 365.543 25.1895C365.001 26.0508 364.594 27.0557 364.323 28.2041C364.068 29.3366 363.94 30.5488 363.94 31.8408ZM404.638 24.2563V45H400.188V19.1123H404.399L404.638 24.2563ZM403.729 31.0752L401.671 31.0034C401.687 29.2329 401.919 27.598 402.365 26.0986C402.812 24.5833 403.474 23.2674 404.351 22.1509C405.228 21.0343 406.321 20.173 407.629 19.5669C408.937 18.9448 410.452 18.6338 412.175 18.6338C413.387 18.6338 414.504 18.8092 415.524 19.1602C416.545 19.4951 417.431 20.0295 418.18 20.7632C418.93 21.4969 419.512 22.438 419.927 23.5864C420.341 24.7349 420.549 26.1226 420.549 27.7495V45H416.123V27.9648C416.123 26.609 415.891 25.5244 415.429 24.7109C414.982 23.8975 414.344 23.3073 413.515 22.9404C412.685 22.5576 411.712 22.3662 410.596 22.3662C409.288 22.3662 408.195 22.5975 407.318 23.0601C406.441 23.5226 405.739 24.1606 405.212 24.9741C404.686 25.7876 404.303 26.7207 404.064 27.7734C403.841 28.8102 403.729 29.9108 403.729 31.0752ZM420.501 28.6348L417.534 29.5439C417.55 28.1243 417.781 26.7606 418.228 25.4526C418.691 24.1447 419.353 22.9803 420.214 21.9595C421.091 20.9386 422.168 20.1331 423.444 19.543C424.72 18.9368 426.179 18.6338 427.822 18.6338C429.21 18.6338 430.438 18.8172 431.507 19.1841C432.591 19.5509 433.501 20.1172 434.234 20.8828C434.984 21.6325 435.55 22.5975 435.933 23.7778C436.316 24.9582 436.507 26.3618 436.507 27.9888V45H432.057V27.9409C432.057 26.4894 431.826 25.3649 431.363 24.5674C430.917 23.7539 430.279 23.1877 429.449 22.8687C428.636 22.5337 427.663 22.3662 426.53 22.3662C425.557 22.3662 424.696 22.5337 423.946 22.8687C423.197 23.2036 422.567 23.6662 422.056 24.2563C421.546 24.8306 421.155 25.4925 420.884 26.2422C420.629 26.9919 420.501 27.7894 420.501 28.6348ZM453.949 45.4785C452.147 45.4785 450.512 45.1755 449.044 44.5693C447.593 43.9473 446.341 43.078 445.288 41.9614C444.251 40.8449 443.454 39.521 442.896 37.9897C442.337 36.4585 442.058 34.7837 442.058 32.9653V31.9604C442.058 29.855 442.369 27.9808 442.991 26.3379C443.613 24.679 444.459 23.2754 445.527 22.127C446.596 20.9785 447.808 20.1092 449.164 19.519C450.52 18.9289 451.924 18.6338 453.375 18.6338C455.225 18.6338 456.82 18.9528 458.16 19.5908C459.516 20.2288 460.625 21.1221 461.486 22.2705C462.347 23.403 462.985 24.7428 463.4 26.29C463.815 27.8213 464.022 29.4961 464.022 31.3145V33.3003H444.69V29.6875H459.596V29.3525C459.532 28.2041 459.293 27.0876 458.878 26.0029C458.479 24.9183 457.841 24.0251 456.964 23.3232C456.087 22.6214 454.89 22.2705 453.375 22.2705C452.37 22.2705 451.445 22.4858 450.6 22.9165C449.754 23.3312 449.028 23.9533 448.422 24.7827C447.816 25.6121 447.346 26.625 447.011 27.8213C446.676 29.0176 446.508 30.3973 446.508 31.9604V32.9653C446.508 34.1935 446.676 35.3499 447.011 36.4346C447.362 37.5033 447.864 38.4443 448.518 39.2578C449.188 40.0713 449.993 40.7093 450.935 41.1719C451.892 41.6344 452.976 41.8657 454.188 41.8657C455.752 41.8657 457.076 41.5467 458.16 40.9087C459.245 40.2707 460.194 39.4173 461.007 38.3486L463.687 40.478C463.129 41.3234 462.419 42.1289 461.558 42.8945C460.696 43.6602 459.636 44.2822 458.375 44.7607C457.131 45.2393 455.656 45.4785 453.949 45.4785ZM474.454 10.1641L474.143 35.1665H470.147L469.812 10.1641H474.454ZM469.668 42.7749C469.668 42.0571 469.884 41.451 470.314 40.9565C470.761 40.4621 471.415 40.2148 472.276 40.2148C473.122 40.2148 473.768 40.4621 474.214 40.9565C474.677 41.451 474.908 42.0571 474.908 42.7749C474.908 43.4608 474.677 44.0509 474.214 44.5454C473.768 45.0399 473.122 45.2871 472.276 45.2871C471.415 45.2871 470.761 45.0399 470.314 44.5454C469.884 44.0509 469.668 43.4608 469.668 42.7749Z" fill="white"/>
</svg>
