<svg width="60" height="60" viewBox="0 0 60 60" fill="none" xmlns="http://www.w3.org/2000/svg">
<circle cx="30" cy="30" r="30" fill="#677A8E"/>
<mask id="mask0_6_289" style="mask-type:alpha" maskUnits="userSpaceOnUse" x="0" y="0" width="60" height="60">
<circle cx="30" cy="30" r="30" fill="#D9D9D9"/>
</mask>
<g mask="url(#mask0_6_289)">
<path d="M30 38.25C36.8359 38.25 42.5 32.6836 42.5 25.75C42.5 18.9141 36.8359 13.25 30 13.25C23.0664 13.25 17.5 18.9141 17.5 25.75C17.5 32.6836 23.0664 38.25 30 38.25ZM34.8828 42.9375H25.0195C15.6445 42.9375 8.125 50.5547 8.125 59.9297C8.125 61.7852 9.58984 63.25 11.4453 63.25H48.457C50.3125 63.25 51.875 61.7852 51.875 59.9297C51.875 50.5547 44.2578 42.9375 34.8828 42.9375Z" fill="#DBE0E6"/>
</g>
</svg>
